<svg xmlns="http://www.w3.org/2000/svg" width="500" height="500" viewBox="0 0 375 375">
  <rect x="0" y="0" width="375" height="375" fill="none"/>
  <g fill="#fff">
    <g transform="translate(25.13524, 272.655733)">
      <path d="M 63.4375 -56.953125 L 59.640625 -41.0625 L 21.375 -185.296875 L 29.65625 -185.296875 Z M 71.828125 -87.953125 L 67.6875 -72.5 L 38.046875 -185.296875 L 46.21875 -185.296875 Z M 80.234375 -120.0625 L 75.96875 -104.390625 L 54.609375 -185.296875 L 63 -185.296875 Z M 112.109375 0 L 103.71875 0 L 152.734375 -185.078125 L 152.625 -185.296875 L 161.125 -185.296875 L 161.125 -185.078125 L 182.9375 -109.875 L 202.96875 -185.296875 L 211.359375 -185.296875 L 162.25 0 L 153.859375 0 L 131.921875 -75.078125 Z M 95.328125 0 L 87.046875 0 L 136.0625 -185.296875 L 144.34375 -185.296875 Z M 78.65625 0 L 70.375 0 L 119.5 -185.296875 L 127.671875 -185.296875 Z M 212.375 0 L 203.984375 0 L 252.984375 -185.296875 L 261.375 -185.296875 Z M 195.59375 0 L 187.3125 0 L 236.3125 -185.296875 L 244.59375 -185.296875 Z M 178.921875 0 L 170.640625 0 L 219.75 -185.296875 L 227.921875 -185.296875 Z M 57.84375 -15.890625 L 102.71875 -185.296875 L 111.109375 -185.296875 L 61.984375 0 L 53.59375 0 L 4.59375 -185.296875 L 12.984375 -185.296875 Z M 136.171875 -90.859375 L 157.875 -15.21875 L 162.125 -31.21875 L 140.3125 -106.640625 Z M 144.453125 -122.40625 L 166.265625 -47 L 170.53125 -62.765625 L 148.703125 -138.296875 Z M 152.734375 -153.734375 L 174.671875 -78.328125 L 178.796875 -94.21875 L 157.09375 -169.859375 Z M 152.734375 -153.734375 "/>
    </g>
    <g transform="translate(291.31958, 272.655733)">
      <path d="M 9.0625 -32.21875 L 9.0625 -40.28125 L 49.34375 -40.28125 L 49.34375 -32.21875 Z M 9.0625 -16.109375 L 9.0625 -24.171875 L 49.34375 -24.171875 L 49.34375 -16.109375 Z M 9.0625 0 L 9.0625 -8.0625 L 49.34375 -8.0625 L 49.34375 0 Z M 9.0625 0 "/>
    </g>
  </g>
</svg>
