<svg xmlns="http://www.w3.org/2000/svg" xmlns:xlink="http://www.w3.org/1999/xlink" width="500" zoomAndPan="magnify" viewBox="0 0 375 74.999997" height="100" preserveAspectRatio="xMidYMid meet" version="1.2"><defs/><g id="df70558ba3"><g style="fill:#ffffff;fill-opacity:1;"><g transform="translate(-0.0821629, 63.195368)"><path style="stroke:none" d="M 16.1875 -14.53125 L 15.21875 -10.484375 L 5.453125 -47.28125 L 7.5625 -47.28125 Z M 18.328125 -22.4375 L 17.265625 -18.5 L 9.703125 -47.28125 L 11.796875 -47.28125 Z M 20.46875 -30.640625 L 19.390625 -26.640625 L 13.9375 -47.28125 L 16.078125 -47.28125 Z M 28.609375 0 L 26.46875 0 L 38.96875 -47.21875 L 38.9375 -47.28125 L 41.109375 -47.28125 L 41.109375 -47.21875 L 46.671875 -28.03125 L 51.78125 -47.28125 L 53.921875 -47.28125 L 41.390625 0 L 39.25 0 L 33.65625 -19.15625 Z M 24.328125 0 L 22.21875 0 L 34.71875 -47.28125 L 36.828125 -47.28125 Z M 20.0625 0 L 17.953125 0 L 30.484375 -47.28125 L 32.578125 -47.28125 Z M 54.1875 0 L 52.046875 0 L 64.546875 -47.28125 L 66.6875 -47.28125 Z M 49.90625 0 L 47.796875 0 L 60.296875 -47.28125 L 62.40625 -47.28125 Z M 45.65625 0 L 43.53125 0 L 56.078125 -47.28125 L 58.15625 -47.28125 Z M 14.765625 -4.046875 L 26.203125 -47.28125 L 28.34375 -47.28125 L 15.8125 0 L 13.671875 0 L 1.171875 -47.28125 L 3.3125 -47.28125 Z M 34.75 -23.1875 L 40.28125 -3.875 L 41.375 -7.96875 L 35.796875 -27.203125 Z M 36.859375 -31.234375 L 42.421875 -11.984375 L 43.515625 -16.015625 L 37.9375 -35.28125 Z M 38.96875 -39.234375 L 44.5625 -19.984375 L 45.625 -24.03125 L 40.078125 -43.34375 Z M 38.96875 -39.234375 "/></g></g><g style="fill:#ffffff;fill-opacity:1;"><g transform="translate(67.828697, 63.195368)"><path style="stroke:none" d="M 12.9375 0 L 10.875 0 L 10.875 -41.109375 L 12.9375 -41.109375 Z M 8.828125 0 L 6.765625 0 L 6.765625 -41.109375 L 8.828125 -41.109375 Z M 4.703125 0 L 2.65625 0 L 2.65625 -41.109375 L 4.703125 -41.109375 Z M 17.046875 -10.28125 L 36.71875 -10.28125 L 36.71875 -8.21875 L 17.046875 -8.21875 L 17.046875 -6.171875 L 36.71875 -6.171875 L 36.71875 -4.109375 L 17.046875 -4.109375 L 17.046875 -2.0625 L 36.71875 -2.0625 L 36.71875 0 L 14.984375 0 L 14.984375 -41.109375 L 36.71875 -41.109375 L 36.71875 -39.0625 L 17.046875 -39.0625 L 17.046875 -37 L 36.71875 -37 L 36.71875 -34.9375 L 17.046875 -34.9375 L 17.046875 -32.890625 L 36.71875 -32.890625 L 36.71875 -30.828125 L 17.046875 -30.828125 L 17.046875 -25.71875 L 35.578125 -25.71875 L 35.578125 -23.671875 L 17.046875 -23.671875 L 17.046875 -21.609375 L 35.578125 -21.609375 L 35.578125 -19.5625 L 17.046875 -19.5625 L 17.046875 -17.5 L 35.578125 -17.5 L 35.578125 -15.4375 L 17.046875 -15.4375 Z M 17.046875 -10.28125 "/></g></g><g style="fill:#ffffff;fill-opacity:1;"><g transform="translate(106.822485, 63.195368)"><path style="stroke:none" d="M 31.828125 -20.265625 C 31.828125 -22.703125 31.078125 -24.585938 29.578125 -25.921875 C 28.078125 -27.253906 26.085938 -27.921875 23.609375 -27.921875 C 21.515625 -27.921875 19.710938 -27.195312 18.203125 -25.75 C 16.703125 -24.300781 15.953125 -22.570312 15.953125 -20.5625 C 15.953125 -19.414062 16.101562 -18.390625 16.40625 -17.484375 C 16.71875 -16.578125 17.132812 -15.820312 17.65625 -15.21875 C 18.175781 -14.625 18.796875 -14.128906 19.515625 -13.734375 C 20.242188 -13.347656 21.003906 -13.066406 21.796875 -12.890625 C 22.585938 -12.722656 23.429688 -12.640625 24.328125 -12.640625 C 26.492188 -12.640625 28.472656 -13.175781 30.265625 -14.25 L 30.265625 -12.1875 C 28.421875 -11.21875 26.429688 -10.734375 24.296875 -10.734375 C 22.921875 -10.734375 21.628906 -10.914062 20.421875 -11.28125 C 19.210938 -11.65625 18.113281 -12.21875 17.125 -12.96875 C 16.132812 -13.726562 15.347656 -14.757812 14.765625 -16.0625 C 14.191406 -17.363281 13.90625 -18.863281 13.90625 -20.5625 C 13.90625 -23.1875 14.828125 -25.410156 16.671875 -27.234375 C 18.515625 -29.066406 20.828125 -29.984375 23.609375 -29.984375 C 26.671875 -29.984375 29.148438 -29.117188 31.046875 -27.390625 C 32.941406 -25.671875 33.890625 -23.296875 33.890625 -20.265625 L 33.890625 0 L 31.828125 0 Z M 38 -20.265625 L 38 0 L 35.9375 0 L 35.9375 -20.265625 C 35.9375 -23.867188 34.785156 -26.726562 32.484375 -28.84375 C 30.179688 -30.96875 27.222656 -32.03125 23.609375 -32.03125 C 20.253906 -32.03125 17.453125 -30.914062 15.203125 -28.6875 C 12.960938 -26.46875 11.84375 -23.757812 11.84375 -20.5625 C 11.84375 -18.613281 12.179688 -16.867188 12.859375 -15.328125 C 13.535156 -13.785156 14.453125 -12.546875 15.609375 -11.609375 C 16.773438 -10.679688 18.078125 -9.972656 19.515625 -9.484375 C 20.953125 -9.003906 22.46875 -8.765625 24.0625 -8.765625 C 26.238281 -8.765625 28.304688 -9.269531 30.265625 -10.28125 L 30.265625 -8.109375 C 28.203125 -7.253906 26.125 -6.828125 24.03125 -6.828125 C 22.15625 -6.828125 20.367188 -7.113281 18.671875 -7.6875 C 16.972656 -8.269531 15.457031 -9.117188 14.125 -10.234375 C 12.800781 -11.347656 11.75 -12.796875 10.96875 -14.578125 C 10.1875 -16.359375 9.796875 -18.351562 9.796875 -20.5625 C 9.796875 -24.300781 11.117188 -27.488281 13.765625 -30.125 C 16.421875 -32.769531 19.703125 -34.09375 23.609375 -34.09375 C 26.347656 -34.09375 28.800781 -33.535156 30.96875 -32.421875 C 33.144531 -31.304688 34.859375 -29.691406 36.109375 -27.578125 C 37.367188 -25.460938 38 -23.023438 38 -20.265625 Z M 42.109375 -20.265625 L 42.109375 0 L 40.046875 0 L 40.046875 -20.265625 C 40.046875 -23.410156 39.328125 -26.195312 37.890625 -28.625 C 36.460938 -31.050781 34.5 -32.910156 32 -34.203125 C 29.507812 -35.492188 26.710938 -36.140625 23.609375 -36.140625 C 20.660156 -36.140625 17.96875 -35.441406 15.53125 -34.046875 C 13.09375 -32.648438 11.179688 -30.757812 9.796875 -28.375 C 8.421875 -26 7.734375 -23.394531 7.734375 -20.5625 C 7.734375 -18.125 8.179688 -15.898438 9.078125 -13.890625 C 9.972656 -11.878906 11.175781 -10.226562 12.6875 -8.9375 C 14.195312 -7.644531 15.914062 -6.640625 17.84375 -5.921875 C 19.78125 -5.210938 21.804688 -4.859375 23.921875 -4.859375 C 26.078125 -4.859375 28.191406 -5.300781 30.265625 -6.1875 L 30.265625 -4.109375 C 28.085938 -3.296875 25.953125 -2.890625 23.859375 -2.890625 C 20.566406 -2.890625 17.539062 -3.628906 14.78125 -5.109375 C 12.03125 -6.597656 9.828125 -8.703125 8.171875 -11.421875 C 6.515625 -14.140625 5.6875 -17.1875 5.6875 -20.5625 C 5.6875 -22.957031 6.144531 -25.238281 7.0625 -27.40625 C 7.988281 -29.570312 9.238281 -31.445312 10.8125 -33.03125 C 12.394531 -34.613281 14.300781 -35.867188 16.53125 -36.796875 C 18.757812 -37.734375 21.117188 -38.203125 23.609375 -38.203125 C 27.085938 -38.203125 30.226562 -37.457031 33.03125 -35.96875 C 35.84375 -34.488281 38.054688 -32.375 39.671875 -29.625 C 41.296875 -26.882812 42.109375 -23.765625 42.109375 -20.265625 Z M 46.21875 -20.265625 L 46.21875 0 L 44.171875 0 L 44.171875 -20.265625 C 44.171875 -24.148438 43.265625 -27.617188 41.453125 -30.671875 C 39.640625 -33.734375 37.171875 -36.09375 34.046875 -37.75 C 30.929688 -39.414062 27.453125 -40.25 23.609375 -40.25 C 19.921875 -40.25 16.539062 -39.363281 13.46875 -37.59375 C 10.40625 -35.820312 8 -33.425781 6.25 -30.40625 C 4.5 -27.394531 3.625 -24.113281 3.625 -20.5625 C 3.625 -18.21875 4 -15.992188 4.75 -13.890625 C 5.5 -11.785156 6.523438 -9.945312 7.828125 -8.375 C 9.140625 -6.8125 10.644531 -5.457031 12.34375 -4.3125 C 14.050781 -3.164062 15.890625 -2.296875 17.859375 -1.703125 C 19.828125 -1.117188 21.828125 -0.828125 23.859375 -0.828125 C 26.109375 -0.828125 28.242188 -1.253906 30.265625 -2.109375 L 30.265625 0 C 28.148438 0.738281 25.976562 1.109375 23.75 1.109375 C 21.445312 1.109375 19.207031 0.785156 17.03125 0.140625 C 14.851562 -0.503906 12.832031 -1.457031 10.96875 -2.71875 C 9.113281 -3.988281 7.484375 -5.484375 6.078125 -7.203125 C 4.671875 -8.929688 3.566406 -10.945312 2.765625 -13.25 C 1.960938 -15.550781 1.5625 -17.988281 1.5625 -20.5625 C 1.5625 -23.507812 2.117188 -26.316406 3.234375 -28.984375 C 4.347656 -31.660156 5.867188 -33.972656 7.796875 -35.921875 C 9.734375 -37.878906 12.078125 -39.429688 14.828125 -40.578125 C 17.578125 -41.734375 20.503906 -42.3125 23.609375 -42.3125 C 26.765625 -42.3125 29.734375 -41.773438 32.515625 -40.703125 C 35.296875 -39.640625 37.691406 -38.160156 39.703125 -36.265625 C 41.722656 -34.378906 43.3125 -32.054688 44.46875 -29.296875 C 45.632812 -26.535156 46.21875 -23.523438 46.21875 -20.265625 Z M 46.21875 -20.265625 "/></g></g><g style="fill:#ffffff;fill-opacity:1;"><g transform="translate(155.46481, 63.195368)"><path style="stroke:none" d="M 9.9375 -29.71875 L 11.984375 -29.71875 L 11.984375 0 L 9.9375 0 Z M 1.71875 -39.0625 L 1.71875 -41.109375 L 32.546875 -41.109375 L 32.546875 -39.0625 Z M 1.71875 -34.9375 L 1.71875 -37 L 32.546875 -37 L 32.546875 -34.9375 Z M 1.71875 -30.828125 L 1.71875 -32.890625 L 32.546875 -32.890625 L 32.546875 -30.828125 Z M 22.265625 -29.71875 L 24.328125 -29.71875 L 24.328125 0 L 22.265625 0 Z M 18.15625 -29.71875 L 20.21875 -29.71875 L 20.21875 0 L 18.15625 0 Z M 14.046875 -29.71875 L 16.109375 -29.71875 L 16.109375 0 L 14.046875 0 Z M 14.046875 -29.71875 "/></g></g><g style="fill:#ffffff;fill-opacity:1;"><g transform="translate(189.862706, 63.195368)"><path style="stroke:none" d="M 43.796875 -41.109375 L 45.84375 -41.109375 L 45.84375 0 L 43.796875 0 Z M 2.65625 -41.109375 L 4.703125 -41.109375 L 4.703125 0 L 2.65625 0 Z M 39.6875 -41.109375 L 41.734375 -41.109375 L 41.734375 0 L 39.6875 0 Z M 35.578125 -41.109375 L 37.625 -41.109375 L 37.625 0 L 35.578125 0 Z M 31.46875 -41.109375 L 33.515625 -41.109375 L 33.515625 0 L 31.46875 0 L 31.46875 -16.4375 L 17.046875 -16.4375 L 17.046875 0 L 14.984375 0 L 14.984375 -41.109375 L 17.046875 -41.109375 L 17.046875 -26.71875 L 31.46875 -26.71875 Z M 10.875 -41.109375 L 12.9375 -41.109375 L 12.9375 0 L 10.875 0 Z M 6.765625 -41.109375 L 8.828125 -41.109375 L 8.828125 0 L 6.765625 0 Z M 31.46875 -18.5 L 31.46875 -20.5625 L 17.046875 -20.5625 L 17.046875 -18.5 Z M 31.46875 -22.609375 L 31.46875 -24.671875 L 17.046875 -24.671875 L 17.046875 -22.609375 Z M 31.46875 -22.609375 "/></g></g><g style="fill:#ffffff;fill-opacity:1;"><g transform="translate(238.419402, 63.195368)"><path style="stroke:none" d="M 12.9375 0 L 10.875 0 L 10.875 -41.109375 L 12.9375 -41.109375 Z M 8.828125 0 L 6.765625 0 L 6.765625 -41.109375 L 8.828125 -41.109375 Z M 4.703125 0 L 2.65625 0 L 2.65625 -41.109375 L 4.703125 -41.109375 Z M 17.046875 -10.28125 L 36.71875 -10.28125 L 36.71875 -8.21875 L 17.046875 -8.21875 L 17.046875 -6.171875 L 36.71875 -6.171875 L 36.71875 -4.109375 L 17.046875 -4.109375 L 17.046875 -2.0625 L 36.71875 -2.0625 L 36.71875 0 L 14.984375 0 L 14.984375 -41.109375 L 36.71875 -41.109375 L 36.71875 -39.0625 L 17.046875 -39.0625 L 17.046875 -37 L 36.71875 -37 L 36.71875 -34.9375 L 17.046875 -34.9375 L 17.046875 -32.890625 L 36.71875 -32.890625 L 36.71875 -30.828125 L 17.046875 -30.828125 L 17.046875 -25.71875 L 35.578125 -25.71875 L 35.578125 -23.671875 L 17.046875 -23.671875 L 17.046875 -21.609375 L 35.578125 -21.609375 L 35.578125 -19.5625 L 17.046875 -19.5625 L 17.046875 -17.5 L 35.578125 -17.5 L 35.578125 -15.4375 L 17.046875 -15.4375 Z M 17.046875 -10.28125 "/></g></g><g style="fill:#ffffff;fill-opacity:1;"><g transform="translate(277.41319, 63.195368)"><path style="stroke:none" d="M 18.1875 -19.640625 L 30.578125 -19.640625 C 32.210938 -19.640625 33.597656 -20.148438 34.734375 -21.171875 C 35.878906 -22.203125 36.453125 -23.648438 36.453125 -25.515625 C 36.453125 -26.890625 35.859375 -28.117188 34.671875 -29.203125 C 33.484375 -30.285156 32.117188 -30.828125 30.578125 -30.828125 L 12.9375 -30.828125 L 12.9375 0 L 10.875 0 L 10.875 -32.890625 L 30.578125 -32.890625 C 32.691406 -32.890625 34.539062 -32.144531 36.125 -30.65625 C 37.71875 -29.175781 38.515625 -27.460938 38.515625 -25.515625 C 38.515625 -23.097656 37.742188 -21.171875 36.203125 -19.734375 C 34.660156 -18.304688 32.785156 -17.59375 30.578125 -17.59375 L 18.1875 -17.59375 Z M 18.1875 -15.53125 L 30.578125 -15.53125 C 33.316406 -15.53125 35.664062 -16.460938 37.625 -18.328125 C 39.582031 -20.191406 40.5625 -22.585938 40.5625 -25.515625 C 40.5625 -28.015625 39.5625 -30.207031 37.5625 -32.09375 C 35.570312 -33.988281 33.242188 -34.9375 30.578125 -34.9375 L 8.828125 -34.9375 L 8.828125 0 L 6.765625 0 L 6.765625 -37 L 30.578125 -37 C 33.804688 -37 36.617188 -35.851562 39.015625 -33.5625 C 41.421875 -31.269531 42.625 -28.585938 42.625 -25.515625 C 42.625 -22.097656 41.4375 -19.234375 39.0625 -16.921875 C 36.695312 -14.617188 33.867188 -13.46875 30.578125 -13.46875 L 18.1875 -13.46875 Z M 18.1875 -11.421875 L 30.578125 -11.421875 C 33.109375 -11.421875 35.445312 -12.03125 37.59375 -13.25 C 39.75 -14.46875 41.46875 -16.160156 42.75 -18.328125 C 44.03125 -20.492188 44.671875 -22.890625 44.671875 -25.515625 C 44.671875 -27.898438 44.035156 -30.132812 42.765625 -32.21875 C 41.492188 -34.300781 39.765625 -35.960938 37.578125 -37.203125 C 35.398438 -38.441406 33.066406 -39.0625 30.578125 -39.0625 L 4.703125 -39.0625 L 4.703125 0 L 2.65625 0 L 2.65625 -41.109375 L 30.578125 -41.109375 C 32.722656 -41.109375 34.789062 -40.679688 36.78125 -39.828125 C 38.769531 -38.984375 40.488281 -37.863281 41.9375 -36.46875 C 43.382812 -35.070312 44.546875 -33.410156 45.421875 -31.484375 C 46.296875 -29.566406 46.734375 -27.578125 46.734375 -25.515625 C 46.734375 -22.191406 45.972656 -19.285156 44.453125 -16.796875 C 42.929688 -14.316406 40.882812 -12.429688 38.3125 -11.140625 L 42.625 0 L 40.421875 0 L 36.34375 -10.3125 C 35.832031 -10.132812 35.234375 -9.960938 34.546875 -9.796875 L 38.40625 0 L 36.203125 0 L 32.4375 -9.453125 C 31.84375 -9.390625 31.222656 -9.359375 30.578125 -9.359375 L 34.203125 0 L 32.03125 0 L 28.4375 -9.359375 L 26.578125 -9.359375 L 30.03125 0 L 27.859375 0 L 24.375 -9.359375 L 18.1875 -9.359375 Z M 17.046875 0 L 14.984375 0 L 14.984375 -28.78125 L 30.578125 -28.78125 C 31.640625 -28.78125 32.539062 -28.457031 33.28125 -27.8125 C 34.03125 -27.175781 34.40625 -26.410156 34.40625 -25.515625 C 34.40625 -22.972656 33.128906 -21.703125 30.578125 -21.703125 L 18.1875 -21.703125 L 18.1875 -23.75 L 30.578125 -23.75 C 31.753906 -23.75 32.34375 -24.335938 32.34375 -25.515625 C 32.34375 -25.847656 32.164062 -26.128906 31.8125 -26.359375 C 31.46875 -26.597656 31.054688 -26.71875 30.578125 -26.71875 L 17.046875 -26.71875 Z M 17.046875 0 "/></g></g><g style="fill:#ffffff;fill-opacity:1;"><g transform="translate(326.026977, 63.195368)"><path style="stroke:none" d="M 2.65625 -41.109375 L 4.703125 -41.109375 L 4.703125 0 L 2.65625 0 Z M 14.984375 -41.109375 L 17.046875 -41.109375 L 17.046875 -10.28125 L 32.203125 -10.28125 L 32.203125 -8.21875 L 17.046875 -8.21875 L 17.046875 -6.171875 L 32.203125 -6.171875 L 32.203125 -4.109375 L 17.046875 -4.109375 L 17.046875 -2.0625 L 32.203125 -2.0625 L 32.203125 0 L 14.984375 0 Z M 10.875 -41.109375 L 12.9375 -41.109375 L 12.9375 0 L 10.875 0 Z M 6.765625 -41.109375 L 8.828125 -41.109375 L 8.828125 0 L 6.765625 0 Z M 6.765625 -41.109375 "/></g></g><g style="fill:#ffffff;fill-opacity:1;"><g transform="translate(360.110842, 63.195368)"><path style="stroke:none" d="M 2.3125 -8.21875 L 2.3125 -10.28125 L 12.59375 -10.28125 L 12.59375 -8.21875 Z M 2.3125 -4.109375 L 2.3125 -6.171875 L 12.59375 -6.171875 L 12.59375 -4.109375 Z M 2.3125 0 L 2.3125 -2.0625 L 12.59375 -2.0625 L 12.59375 0 Z M 2.3125 0 "/></g></g></g></svg>